<svg width="390" height="85" viewBox="0 0 390 85" fill="none" xmlns="http://www.w3.org/2000/svg">
<path d="M379.75 31V26.23H377.48V25.61H382.69V26.23H380.42V31H379.75ZM382.95 31V25.61H383.57L385.75 28.91L387.94 25.61H388.55V31H387.89V26.79L385.75 29.98L383.61 26.79V31H382.95Z" fill="white"/>
<path d="M6.48 66V22.88H11.92V39.92H37.36V22.88H42.72V66H37.36V44.88H11.92V66H6.48ZM55.0569 32.72H60.2569V54.08C60.2569 60.64 62.7369 62.24 71.5369 62.24C80.3369 62.24 82.8169 60.64 82.8169 54.08V32.72H88.0169V55.44C88.0169 63.68 83.0569 67.04 71.4569 67.04C59.6969 67.04 55.0569 63.68 55.0569 55.44V32.72ZM99.43 66V32.64H103.75L117.43 52.16L131.11 32.64H135.43V66H130.23V42L117.43 60.56L104.63 42V66H99.43ZM140.452 66L157.412 32.64H160.692L177.812 66H172.212L167.892 57.52H150.292L145.972 66H140.452ZM152.532 53.12H165.572L159.092 40.32L152.532 53.12ZM182.869 66V32.64H185.589L206.789 56.08V32.64H211.909V66H209.189L187.989 42.64V66H182.869ZM223.336 66V32.64H254.616V37.52H228.536V45.84H245.656V50.64H228.536V61.2H256.056V66H223.336ZM263.493 66V32.64H294.773V37.52H268.693V45.84H285.813V50.64H268.693V61.2H296.213V66H263.493ZM308.929 51.44V66H303.729V32.72H326.689C333.489 32.72 337.569 36.16 337.569 42C337.569 46.64 334.369 50.56 329.329 51.36L338.609 66H332.929L323.489 51.44H308.929ZM308.929 46.56H326.689C330.289 46.56 332.209 44.96 332.209 42C332.209 39.12 330.289 37.52 326.689 37.52H308.929V46.56ZM344.128 61.76L346.688 57.36C351.488 60.56 357.248 62.24 361.968 62.24C368.208 62.24 371.888 59.36 371.888 55.76C371.888 51.84 368.448 50.16 361.488 50C351.248 49.84 345.568 48.4 345.568 41.28C345.568 35.76 350.688 31.76 359.328 31.76C365.088 31.76 370.448 33.36 375.488 36.56L372.848 40.88C368.528 38 363.488 36.48 359.248 36.48C353.968 36.48 350.848 38.56 350.848 41.28C350.848 44.48 354.288 45.36 361.248 45.36C371.968 45.36 377.328 49.04 377.328 56.08C377.328 62 371.808 67.04 362.528 67.04C356.208 67.04 349.568 65.2 344.128 61.76Z" fill="white"/>
</svg>
